<svg width="24" height="25" viewBox="0 0 24 25" fill="none" xmlns="http://www.w3.org/2000/svg">
<g clip-path="url(#clip0_2_10972)">
<path d="M12.0037 8.62846C9.73225 8.62846 7.90011 10.432 7.90011 12.6679C7.90011 14.9039 9.73225 16.7074 12.0037 16.7074C14.2751 16.7074 16.1073 14.9039 16.1073 12.6679C16.1073 10.432 14.2751 8.62846 12.0037 8.62846ZM12.0037 15.2941C10.5358 15.2941 9.33583 14.1164 9.33583 12.6679C9.33583 11.2195 10.5323 10.0417 12.0037 10.0417C13.4751 10.0417 14.6715 11.2195 14.6715 12.6679C14.6715 14.1164 13.4715 15.2941 12.0037 15.2941ZM17.2322 8.46323C17.2322 8.98706 16.8037 9.40542 16.2751 9.40542C15.743 9.40542 15.318 8.98354 15.318 8.46323C15.318 7.94292 15.7465 7.52104 16.2751 7.52104C16.8037 7.52104 17.2322 7.94292 17.2322 8.46323ZM19.9501 9.41948C19.8894 8.15737 19.5965 7.0394 18.6572 6.11831C17.7215 5.19722 16.5858 4.90894 15.3037 4.84565C13.9823 4.77183 10.0215 4.77183 8.70011 4.84565C7.42154 4.90542 6.28583 5.1937 5.34654 6.11479C4.40726 7.03589 4.11797 8.15386 4.05369 9.41596C3.97869 10.7167 3.97869 14.6156 4.05369 15.9164C4.1144 17.1785 4.40726 18.2964 5.34654 19.2175C6.28583 20.1386 7.41797 20.4269 8.70011 20.4902C10.0215 20.564 13.9823 20.564 15.3037 20.4902C16.5858 20.4304 17.7215 20.1421 18.6572 19.2175C19.593 18.2964 19.8858 17.1785 19.9501 15.9164C20.0251 14.6156 20.0251 10.7203 19.9501 9.41948ZM18.243 17.3121C17.9644 18.0011 17.4251 18.532 16.7215 18.8097C15.668 19.221 13.168 19.1261 12.0037 19.1261C10.8394 19.1261 8.33583 19.2175 7.28583 18.8097C6.58583 18.5355 6.04654 18.0046 5.7644 17.3121C5.34654 16.2749 5.44297 13.814 5.44297 12.6679C5.44297 11.5218 5.35011 9.05737 5.7644 8.02378C6.04297 7.33472 6.58226 6.80386 7.28583 6.52612C8.3394 6.11479 10.8394 6.20972 12.0037 6.20972C13.168 6.20972 15.6715 6.11831 16.7215 6.52612C17.4215 6.80034 17.9608 7.3312 18.243 8.02378C18.6608 9.06089 18.5644 11.5218 18.5644 12.6679C18.5644 13.814 18.6608 16.2785 18.243 17.3121Z" fill="white"/>
</g>
<defs>
<clipPath id="clip0_2_10972">
<rect width="16" height="18" fill="white" transform="translate(4.00012 3.67139)"/>
</clipPath>
</defs>
</svg>
