<svg width="24" height="25" viewBox="0 0 24 25" fill="none" xmlns="http://www.w3.org/2000/svg">
<g clip-path="url(#clip0_2_10980)">
<path d="M20.9998 7.37628C20.3258 7.66076 19.6109 7.84748 18.8788 7.93026C19.6413 7.49485 20.2268 6.80537 20.5025 5.98385C19.7776 6.39366 18.9845 6.6824 18.1575 6.83759C17.4839 6.15386 16.5242 5.72656 15.4619 5.72656C13.4225 5.72656 11.7689 7.3018 11.7689 9.24465C11.7689 9.52043 11.8016 9.78891 11.8646 10.0465C8.79541 9.8997 6.07432 8.4991 4.25287 6.37056C3.93506 6.89017 3.75295 7.49458 3.75295 8.13925C3.75295 9.35986 4.40496 10.4367 5.3958 11.0676C4.80936 11.0501 4.23582 10.8992 3.72307 10.6275C3.72286 10.6422 3.72286 10.657 3.72286 10.6718C3.72286 12.3764 4.99579 13.7983 6.68512 14.1215C6.14131 14.2624 5.5709 14.2831 5.01745 14.1818C5.48735 15.5795 6.8512 16.5967 8.46712 16.6251C7.20325 17.5687 5.61089 18.1312 3.88078 18.1312C3.58265 18.1312 3.28875 18.1145 2.99983 18.082C4.63411 19.0802 6.57522 19.6627 8.66069 19.6627C15.4534 19.6627 19.1678 14.3017 19.1678 9.65266C19.1678 9.50006 19.1643 9.34834 19.1571 9.19749C19.8801 8.69957 20.5041 8.08286 20.9998 7.37628Z" fill="white"/>
</g>
<defs>
<clipPath id="clip0_2_10980">
<rect width="18" height="14" fill="white" transform="translate(2.99983 5.67139)"/>
</clipPath>
</defs>
</svg>
