<svg width="24" height="25" viewBox="0 0 24 25" fill="none" xmlns="http://www.w3.org/2000/svg">
<g clip-path="url(#clip0_2_10976)">
<path d="M7.63281 19.6714V9.55092H4.20251V19.6714H7.63281ZM5.9181 8.16831C7.11431 8.16831 7.85889 7.39117 7.85889 6.42001C7.8366 5.42695 7.11436 4.67139 5.9408 4.67139C4.76743 4.67139 4.00012 5.42697 4.00012 6.42001C4.00012 7.39122 4.74452 8.16831 5.89571 8.16831H5.918H5.9181ZM9.53147 19.6714H12.9618V14.0196C12.9618 13.7172 12.9841 13.415 13.0746 13.1988C13.3226 12.5944 13.8871 11.9685 14.8346 11.9685C16.0759 11.9685 16.5725 12.8966 16.5725 14.2571V19.6713H20.0026V13.8683C20.0026 10.7597 18.3103 9.31332 16.0533 9.31332C14.2028 9.31332 13.3903 10.3276 12.939 11.0185H12.9619V9.55071H9.53155C9.57657 10.5004 9.53155 19.6712 9.53155 19.6712L9.53147 19.6714Z" fill="white"/>
</g>
<defs>
<clipPath id="clip0_2_10976">
<rect width="16" height="15" fill="white" transform="translate(4.00012 4.67139)"/>
</clipPath>
</defs>
</svg>
